<svg xmlns="http://www.w3.org/2000/svg" width="620" height="400" viewBox="0 0 620 400"><rect width="620" height="400" fill="#9b6414" opacity=".12"/><rect x="36" y="48" width="548" height="310" rx="12" fill="white"/><path d="M36 94H584" stroke="#e0e6ef"/><circle cx="59" cy="71" r="5" fill="#9b6414"/><circle cx="76" cy="71" r="5" fill="#b8c4d7"/><circle cx="93" cy="71" r="5" fill="#b8c4d7"/><rect x="444" y="67" width="111" height="8" rx="4" fill="#d2dbea"/><rect x="64" y="126" width="148" height="214" rx="8" fill="#f0f3f8"/><rect x="74" y="136" width="128" height="96" rx="5" fill="#9b6414"/><rect x="74" y="249" width="97" height="12" rx="5" fill="#24344d"/><rect x="74" y="274" width="115" height="8" rx="4" fill="#b8c4d7"/><rect x="74" y="302" width="65" height="22" rx="4" fill="#9b6414"/><rect x="234" y="126" width="148" height="214" rx="8" fill="#f0f3f8"/><rect x="244" y="136" width="128" height="96" rx="5" fill="#9b6414"/><rect x="244" y="249" width="97" height="12" rx="5" fill="#24344d"/><rect x="244" y="274" width="115" height="8" rx="4" fill="#b8c4d7"/><rect x="244" y="302" width="65" height="22" rx="4" fill="#9b6414"/><rect x="404" y="126" width="148" height="214" rx="8" fill="#f0f3f8"/><rect x="414" y="136" width="128" height="96" rx="5" fill="#9b6414"/><rect x="414" y="249" width="97" height="12" rx="5" fill="#24344d"/><rect x="414" y="274" width="115" height="8" rx="4" fill="#b8c4d7"/><rect x="414" y="302" width="65" height="22" rx="4" fill="#9b6414"/></svg>